# xmcd CD database file
#
# Track frame offsets:
#	150
#	12469
#	27151
#	42189
#	55428
#	69232
#	82808
#	96919
#	110406
#	122174
#	134134
#	147349
#	160642
#	185840
#	211282
#	224336
#	236727
#	249904
#
# Disc length: 3486 seconds
#
# Revision: 2
# Processed by: cddbd v1.5.1PL0 Copyright (c) Steve Scherf et al.
# Submitted via: CDex 1.51
#
DISCID=050d9c12
DTITLE=Bud Powell - The Quintessence [CD 1)
DYEAR=1949
DGENRE=Jazz
TTITLE0=Floogie Boo
TTITLE1=Honey Suckle Rose
TTITLE2=Blue Garden Blues
TTITLE3=Reverse The Charges
TTITLE4=Long Tall Dexter
TTITLE5=Jay Bird
TTITLE6=Jay Jay
TTITLE7=Bebop In Pastel
TTITLE8=Serenade To A Square
TTITLE9=Good Kick
TTITLE10=Epistophy
TTITLE11=Rue Chaptal
TTITLE12=Boppin' A Riff
TTITLE13=Webb City
TTITLE14=I'll Remember April
TTITLE15=Indiana
TTITLE16=Somebody Loves Me
TTITLE17=Bud's Bubble
EXTD=YEAR: 1949
EXTT0=
EXTT1=
EXTT2=
EXTT3=
EXTT4=
EXTT5=
EXTT6=
EXTT7=
EXTT8=
EXTT9=
EXTT10=
EXTT11=
EXTT12=
EXTT13=
EXTT14=
EXTT15=
EXTT16=
EXTT17=
PLAYORDER=
